<mxfile host="drawio-plugin" modified="2023-09-25T19:07:12.360Z" agent="5.0 (Macintosh; Intel Mac OS X 10_15_7) AppleWebKit/537.36 (KHTML, like Gecko) Chrome/111.0.0.0 Safari/537.36" etag="I3ZF1UqkIkcdBlT8MWOt" version="20.5.3" type="embed"><diagram name="Page-1" id="JpExchuV2nQb1WH-dLhe"><mxGraphModel dx="1509" dy="699" grid="1" gridSize="10" guides="1" tooltips="1" connect="1" arrows="1" fold="1" page="0" pageScale="1" pageWidth="850" pageHeight="1100" math="0" shadow="0"><root><mxCell id="0"/><mxCell id="1" parent="0"/><mxCell id="ZQBgeoi-Po43PSNOygWH-13" value="Web-Component" style="rounded=0;fillColor=#6a00ff;strokeColor=#3700CC;verticalAlign=top;fontColor=#ffffff;" parent="1" vertex="1"><mxGeometry x="-70" y="170" width="630" height="350" as="geometry"/></mxCell><mxCell id="ZQBgeoi-Po43PSNOygWH-5" value="" style="edgeStyle=orthogonalEdgeStyle;rounded=0;orthogonalLoop=1;jettySize=auto;entryX=0;entryY=0.5;entryDx=0;entryDy=0;" parent="1" source="ZQBgeoi-Po43PSNOygWH-1" target="ZQBgeoi-Po43PSNOygWH-4" edge="1"><mxGeometry relative="1" as="geometry"/></mxCell><mxCell id="ZQBgeoi-Po43PSNOygWH-1" value="Address input box" style="rounded=1;" parent="1" vertex="1"><mxGeometry x="-40" y="200" width="140" height="60" as="geometry"/></mxCell><mxCell id="ZQBgeoi-Po43PSNOygWH-6" value="" style="edgeStyle=orthogonalEdgeStyle;rounded=0;orthogonalLoop=1;jettySize=auto;entryX=0;entryY=0.5;entryDx=0;entryDy=0;" parent="1" source="ZQBgeoi-Po43PSNOygWH-2" target="ZQBgeoi-Po43PSNOygWH-4" edge="1"><mxGeometry relative="1" as="geometry"/></mxCell><mxCell id="ZQBgeoi-Po43PSNOygWH-2" value="City input box" style="rounded=1;" parent="1" vertex="1"><mxGeometry x="-40" y="320" width="140" height="60" as="geometry"/></mxCell><mxCell id="ZQBgeoi-Po43PSNOygWH-7" value="" style="edgeStyle=orthogonalEdgeStyle;rounded=0;orthogonalLoop=1;jettySize=auto;entryX=0;entryY=0.5;entryDx=0;entryDy=0;" parent="1" source="ZQBgeoi-Po43PSNOygWH-3" target="ZQBgeoi-Po43PSNOygWH-4" edge="1"><mxGeometry relative="1" as="geometry"/></mxCell><mxCell id="ZQBgeoi-Po43PSNOygWH-3" value="Postal Code input box" style="rounded=1;" parent="1" vertex="1"><mxGeometry x="-40" y="440" width="140" height="60" as="geometry"/></mxCell><mxCell id="ZQBgeoi-Po43PSNOygWH-10" value="" style="edgeStyle=orthogonalEdgeStyle;rounded=0;orthogonalLoop=1;jettySize=auto;entryX=0;entryY=0.5;entryDx=0;entryDy=0;" parent="1" source="ZQBgeoi-Po43PSNOygWH-4" target="ZQBgeoi-Po43PSNOygWH-9" edge="1"><mxGeometry relative="1" as="geometry"/></mxCell><mxCell id="ZQBgeoi-Po43PSNOygWH-4" value="State Engine" style="rounded=1;" parent="1" vertex="1"><mxGeometry x="400" y="320" width="120" height="60" as="geometry"/></mxCell><mxCell id="ZQBgeoi-Po43PSNOygWH-8" value="debounced Input event" style="text;strokeColor=none;fillColor=none;align=center;verticalAlign=middle;rounded=0;" parent="1" vertex="1"><mxGeometry x="270" y="320" width="90" height="30" as="geometry"/></mxCell><mxCell id="ZQBgeoi-Po43PSNOygWH-9" value="Client" style="rounded=1;" parent="1" vertex="1"><mxGeometry x="800" y="320" width="120" height="60" as="geometry"/></mxCell><mxCell id="ZQBgeoi-Po43PSNOygWH-11" value="debounced&#10;state changed event" style="text;strokeColor=none;fillColor=none;align=center;verticalAlign=middle;rounded=0;" parent="1" vertex="1"><mxGeometry x="590" y="320" width="130" height="30" as="geometry"/></mxCell></root></mxGraphModel></diagram></mxfile>